<svg xmlns="http://www.w3.org/2000/svg" xmlns:xlink="http://www.w3.org/1999/xlink" width="500" zoomAndPan="magnify" viewBox="0 0 375 374.999991" height="500" preserveAspectRatio="xMidYMid meet" version="1.0"><defs><g/><clipPath id="e5a962b3a9"><path d="M 16 77.023438 L 127.265625 77.023438 L 127.265625 187 L 16 187 Z M 16 77.023438 " clip-rule="nonzero"/></clipPath></defs><path fill="#ffffff" d="M 125.121094 112.699219 C 125.046875 112.574219 124.949219 112.472656 124.871094 112.347656 C 123.214844 110.242188 120.429688 109.085938 117.796875 109.386719 C 114.886719 109.714844 112.726562 111.144531 111.574219 111.972656 C 111.574219 111.972656 104.472656 117.015625 92.855469 121.859375 C 90.875 122.6875 90.546875 122.359375 90.472656 122.257812 C 90.398438 122.160156 90.371094 122.007812 90.449219 121.808594 C 91.878906 116.863281 93.433594 111.921875 94.363281 106.878906 C 95.492188 101.285156 96.195312 95.613281 96.46875 89.917969 C 96.621094 87.03125 96.59375 83.972656 95.066406 81.539062 C 92.679688 77.722656 86.585938 77.023438 83.371094 80.183594 C 81.367188 82.164062 80.636719 85.074219 80.035156 87.835938 C 79.257812 91.347656 78.53125 94.886719 77.878906 98.421875 C 77.550781 100.207031 77.300781 102.011719 77.074219 103.816406 C 76.773438 106.203125 76.648438 107.757812 76.046875 107.882812 C 75.820312 107.933594 75.417969 107.859375 74.765625 106.730469 C 74.089844 105.574219 73.4375 104.421875 72.734375 103.292969 C 71.453125 101.183594 70.125 99.125 68.71875 97.117188 C 65.933594 93.078125 62.875 89.214844 59.5625 85.550781 C 57.605469 83.371094 55.445312 81.210938 52.710938 80.207031 C 50.503906 79.40625 47.84375 79.554688 45.9375 80.984375 C 43.90625 82.464844 42.148438 83.746094 42.351562 86.582031 C 42.476562 88.335938 43.277344 89.992188 44.082031 91.574219 C 45.5625 94.410156 47.191406 97.195312 48.949219 99.878906 C 48.972656 99.929688 50.078125 101.535156 52.234375 104.722656 C 53.816406 107.03125 55.121094 108.960938 54.894531 109.136719 C 54.792969 109.210938 54.542969 108.835938 53.765625 108.460938 C 53.011719 108.109375 52.285156 107.757812 51.53125 107.457031 C 50.027344 106.855469 48.496094 106.300781 46.941406 105.800781 C 43.855469 104.773438 40.695312 103.945312 37.507812 103.292969 C 35.550781 102.890625 33.59375 102.5625 31.636719 102.3125 C 29.277344 102.011719 26.792969 101.8125 24.585938 102.6875 C 22.078125 103.691406 20.171875 106.101562 19.769531 108.785156 C 19.390625 111.46875 20.523438 114.304688 22.652344 115.988281 C 24.335938 117.292969 26.46875 117.867188 28.523438 118.421875 C 35.625 120.378906 42.574219 122.8125 49.351562 125.746094 C 48.75 125.496094 46.214844 126.800781 45.5625 127.027344 C 44.183594 127.527344 42.828125 128.054688 41.472656 128.605469 C 38.761719 129.710938 36.101562 130.941406 33.519531 132.269531 C 28.675781 134.753906 22.878906 137.613281 19.265625 141.804688 C 16.632812 144.890625 16.105469 149.40625 18.816406 152.644531 C 20.570312 154.726562 23.433594 155.832031 26.117188 155.429688 C 28.476562 155.078125 30.558594 153.699219 32.589844 152.441406 C 37.757812 149.230469 43.253906 146.546875 48.972656 144.4375 C 50.878906 143.738281 52.664062 142.308594 53.339844 142.933594 C 54.042969 143.585938 52.914062 145.84375 52.511719 146.699219 C 47.445312 157.234375 46.640625 170.984375 46.515625 172.316406 C 46.113281 176.253906 46.0625 180.644531 48.621094 183.65625 C 51.882812 187.496094 58.960938 186.867188 61.492188 182.5 C 62.574219 180.644531 62.847656 178.4375 63.148438 176.304688 C 64.101562 169.578125 64.980469 166.21875 64.980469 166.21875 C 66.386719 157.789062 66.738281 156.308594 67.414062 156.257812 C 68.09375 156.179688 68.417969 157.636719 70.800781 162.003906 C 71.40625 163.132812 72.683594 165.441406 74.492188 168.226562 C 77.074219 172.238281 79.933594 176.027344 83.097656 179.617188 C 85.179688 181.972656 87.589844 184.359375 90.699219 184.933594 C 95.242188 185.738281 99.957031 181.472656 99.605469 176.882812 C 99.457031 175.074219 99.003906 173.769531 97.675781 171.460938 C 94.964844 166.769531 87.714844 157.183594 87.460938 156.03125 C 87.460938 156.03125 87.460938 156.007812 87.460938 155.980469 C 87.664062 155.527344 92.933594 157.886719 99.078125 159.792969 C 100.359375 160.195312 105.175781 161.449219 111.449219 162.453125 C 113.808594 162.832031 116.316406 163.105469 118.574219 162.277344 C 123.015625 160.621094 124.820312 154.25 121.859375 150.535156 C 120.332031 148.605469 118.472656 147.574219 115.238281 146.496094 C 101.765625 142.054688 94.988281 141.453125 94.863281 139.796875 C 94.765625 138.542969 98.628906 138.042969 107.308594 134 C 107.8125 133.777344 113.179688 131.015625 119.652344 126.75 C 122.3125 124.996094 125.074219 122.9375 126.152344 119.925781 C 126.953125 117.566406 126.578125 114.78125 125.121094 112.699219 Z M 125.121094 112.699219 " fill-opacity="1" fill-rule="nonzero"/><g clip-path="url(#e5a962b3a9)"><path fill="#ffffff" d="M 54.519531 186.816406 C 51.984375 186.816406 49.652344 185.8125 48.144531 184.058594 C 45.4375 180.84375 45.488281 176.277344 45.886719 172.238281 C 45.886719 172.164062 45.914062 172.039062 45.914062 171.839844 C 46.714844 161.851562 48.847656 152.820312 51.933594 146.394531 L 52.011719 146.246094 C 53.011719 144.113281 52.988281 143.535156 52.914062 143.359375 C 52.636719 143.308594 51.757812 143.761719 51.15625 144.089844 C 50.554688 144.390625 49.878906 144.742188 49.199219 144.992188 C 43.53125 147.074219 38.058594 149.757812 32.941406 152.945312 L 32.488281 153.222656 C 30.558594 154.425781 28.550781 155.679688 26.21875 156.007812 C 23.332031 156.433594 20.246094 155.253906 18.339844 152.996094 C 15.578125 149.683594 15.753906 144.890625 18.789062 141.351562 C 22.328125 137.261719 27.773438 134.453125 32.589844 131.996094 L 33.21875 131.667969 C 35.851562 130.3125 38.535156 129.085938 41.222656 127.980469 C 42.675781 127.402344 44.007812 126.875 45.335938 126.398438 C 45.488281 126.347656 45.789062 126.222656 46.113281 126.074219 C 46.566406 125.871094 46.992188 125.695312 47.34375 125.546875 C 41.222656 122.988281 34.847656 120.777344 28.351562 118.996094 C 26.34375 118.445312 24.058594 117.84375 22.253906 116.464844 C 19.945312 114.65625 18.714844 111.597656 19.140625 108.6875 C 19.566406 105.773438 21.625 103.191406 24.335938 102.085938 C 26.71875 101.132812 29.378906 101.382812 31.6875 101.660156 C 33.644531 101.910156 35.652344 102.238281 37.609375 102.640625 C 40.921875 103.316406 44.105469 104.167969 47.117188 105.171875 C 48.671875 105.675781 50.226562 106.226562 51.734375 106.855469 C 52.285156 107.078125 52.835938 107.332031 53.390625 107.582031 C 52.863281 106.753906 52.183594 105.773438 51.683594 105.046875 C 50.53125 103.339844 49.675781 102.085938 49.125 101.285156 C 48.574219 100.457031 48.421875 100.253906 48.371094 100.179688 C 46.617188 97.496094 44.960938 94.683594 43.480469 91.824219 C 42.601562 90.09375 41.796875 88.414062 41.671875 86.582031 C 41.445312 83.394531 43.429688 81.964844 45.511719 80.433594 C 47.46875 78.980469 50.277344 78.628906 52.863281 79.582031 C 55.824219 80.660156 58.082031 82.992188 59.964844 85.101562 C 63.277344 88.789062 66.386719 92.703125 69.171875 96.742188 C 70.527344 98.675781 71.855469 100.707031 73.210938 102.941406 C 73.714844 103.742188 74.214844 104.597656 74.691406 105.425781 C 74.867188 105.75 75.066406 106.078125 75.242188 106.402344 C 75.519531 106.878906 75.71875 107.105469 75.820312 107.179688 C 76.019531 106.753906 76.171875 105.523438 76.296875 104.421875 L 76.371094 103.71875 C 76.648438 101.511719 76.898438 99.828125 77.175781 98.296875 C 77.800781 94.9375 78.53125 91.375 79.332031 87.683594 C 79.984375 84.675781 80.761719 81.789062 82.847656 79.730469 C 84.5 78.101562 86.984375 77.324219 89.546875 77.625 C 92.105469 77.925781 94.285156 79.230469 95.515625 81.210938 C 97.171875 83.871094 97.171875 87.109375 97.023438 89.96875 C 96.746094 95.6875 96.042969 101.433594 94.914062 107.03125 C 94.136719 111.296875 92.882812 115.535156 91.675781 119.625 C 91.476562 120.351562 91.25 121.054688 91.050781 121.78125 C 91.300781 121.734375 91.777344 121.632812 92.554688 121.304688 C 103.972656 116.539062 111.074219 111.546875 111.148438 111.496094 C 112.527344 110.492188 114.734375 109.136719 117.671875 108.8125 C 120.53125 108.484375 123.515625 109.738281 125.296875 111.996094 L 125.347656 112.074219 C 125.375 112.121094 125.398438 112.148438 125.425781 112.199219 C 125.472656 112.25 125.523438 112.324219 125.574219 112.425781 C 127.128906 114.65625 127.558594 117.617188 126.679688 120.203125 C 125.523438 123.464844 122.589844 125.597656 119.929688 127.351562 C 113.378906 131.667969 108.035156 134.402344 107.484375 134.652344 C 103.746094 136.386719 100.9375 137.464844 98.878906 138.242188 C 97.199219 138.894531 95.617188 139.496094 95.417969 139.824219 C 95.617188 140.375 98.753906 141.203125 101.8125 142.003906 C 105.125 142.882812 109.640625 144.089844 115.363281 145.96875 C 118.925781 147.148438 120.730469 148.277344 122.289062 150.210938 C 123.792969 152.09375 124.269531 154.777344 123.542969 157.386719 C 122.816406 160.019531 121.007812 162.078125 118.726562 162.929688 C 116.265625 163.835938 113.605469 163.507812 111.273438 163.132812 C 104.75 162.078125 99.984375 160.824219 98.804688 160.445312 C 96.042969 159.59375 93.484375 158.640625 91.402344 157.886719 C 90.324219 157.484375 89.242188 157.085938 88.464844 156.832031 C 89.21875 158.039062 90.675781 160.144531 92.027344 162.050781 C 94.238281 165.214844 96.746094 168.800781 98.125 171.1875 C 99.480469 173.542969 99.984375 174.925781 100.132812 176.855469 C 100.308594 179.214844 99.253906 181.648438 97.324219 183.429688 C 95.367188 185.1875 92.832031 186.015625 90.5 185.585938 C 87.261719 184.984375 84.753906 182.578125 82.542969 180.066406 C 79.382812 176.480469 76.472656 172.617188 73.886719 168.601562 C 72.058594 165.792969 70.777344 163.457031 70.175781 162.328125 C 69.320312 160.773438 68.71875 159.570312 68.292969 158.691406 C 67.917969 157.9375 67.589844 157.285156 67.390625 157.007812 C 66.964844 157.835938 66.335938 161.449219 65.507812 166.34375 L 65.507812 166.394531 C 65.507812 166.417969 64.628906 169.804688 63.703125 176.40625 L 63.675781 176.65625 C 63.375 178.761719 63.074219 180.945312 61.96875 182.828125 C 60.691406 185.058594 58.183594 186.539062 55.320312 186.792969 C 55.097656 186.816406 54.792969 186.816406 54.519531 186.816406 Z M 52.914062 142.15625 C 53.238281 142.15625 53.515625 142.257812 53.765625 142.480469 C 54.695312 143.335938 53.941406 145.167969 53.140625 146.824219 L 53.0625 146.972656 C 50.027344 153.269531 47.945312 162.152344 47.167969 171.964844 C 47.140625 172.140625 47.140625 172.289062 47.140625 172.363281 C 46.765625 176.152344 46.691406 180.394531 49.097656 183.230469 C 50.503906 184.886719 52.8125 185.738281 55.273438 185.511719 C 57.730469 185.285156 59.863281 184.03125 60.941406 182.175781 C 61.921875 180.492188 62.195312 178.4375 62.472656 176.453125 L 62.496094 176.203125 C 63.402344 169.753906 64.253906 166.445312 64.328125 166.066406 C 65.007812 162.054688 65.457031 159.417969 65.835938 157.9375 C 66.136719 156.707031 66.460938 155.679688 67.339844 155.628906 C 68.191406 155.527344 68.570312 156.28125 69.472656 158.113281 C 69.898438 158.992188 70.5 160.171875 71.328125 161.703125 C 71.929688 162.832031 73.1875 165.113281 74.992188 167.875 C 77.550781 171.839844 80.4375 175.652344 83.546875 179.1875 C 85.605469 181.523438 87.9375 183.78125 90.800781 184.308594 C 92.730469 184.660156 94.890625 183.957031 96.570312 182.449219 C 98.226562 180.945312 99.128906 178.886719 98.980469 176.929688 C 98.828125 175.199219 98.402344 173.996094 97.121094 171.789062 C 95.765625 169.453125 93.285156 165.890625 91.101562 162.753906 C 88.191406 158.589844 86.984375 156.808594 86.859375 156.179688 L 86.835938 156.105469 L 86.835938 155.855469 L 86.886719 155.730469 C 87.1875 155.050781 88.039062 155.328125 88.894531 155.578125 C 89.644531 155.832031 90.699219 156.207031 91.929688 156.660156 C 93.984375 157.410156 96.519531 158.339844 99.253906 159.191406 C 100.683594 159.644531 105.578125 160.875 111.550781 161.828125 C 113.707031 162.179688 116.191406 162.480469 118.347656 161.675781 C 120.253906 160.972656 121.761719 159.191406 122.386719 156.960938 C 122.992188 154.75 122.613281 152.492188 121.359375 150.914062 C 119.980469 149.179688 118.324219 148.179688 115.035156 147.074219 C 109.339844 145.191406 104.851562 144.011719 101.5625 143.132812 C 96.46875 141.78125 94.335938 141.226562 94.238281 139.824219 C 94.136719 138.644531 95.417969 138.140625 98.503906 136.988281 C 100.535156 136.210938 103.34375 135.15625 107.03125 133.425781 C 107.535156 133.199219 112.929688 130.414062 119.300781 126.222656 C 121.785156 124.59375 124.519531 122.585938 125.550781 119.699219 C 126.300781 117.515625 125.925781 114.957031 124.597656 113.050781 L 124.570312 113.027344 C 124.546875 112.976562 124.519531 112.949219 124.496094 112.902344 C 124.445312 112.851562 124.394531 112.773438 124.34375 112.699219 C 122.816406 110.792969 120.28125 109.714844 117.847656 109.992188 C 115.210938 110.292969 113.207031 111.546875 111.925781 112.449219 C 111.851562 112.5 104.625 117.59375 93.082031 122.410156 C 91.328125 123.136719 90.398438 123.1875 89.945312 122.609375 C 89.746094 122.335938 89.695312 121.957031 89.820312 121.582031 C 90.046875 120.804688 90.273438 120 90.5 119.222656 C 91.703125 115.160156 92.933594 110.945312 93.710938 106.730469 C 94.839844 101.183594 95.542969 95.511719 95.816406 89.84375 C 95.96875 87.183594 95.96875 84.171875 94.511719 81.839844 C 93.484375 80.207031 91.601562 79.078125 89.445312 78.828125 C 87.285156 78.578125 85.152344 79.230469 83.773438 80.585938 C 81.941406 82.390625 81.214844 85.101562 80.613281 87.9375 C 79.808594 91.597656 79.082031 95.160156 78.453125 98.5 C 78.179688 100.03125 77.929688 101.660156 77.652344 103.867188 L 77.578125 104.570312 C 77.277344 106.953125 77.125 108.257812 76.148438 108.484375 C 75.269531 108.6875 74.617188 107.757812 74.191406 107.03125 C 74.015625 106.703125 73.8125 106.378906 73.636719 106.050781 C 73.160156 105.25 72.683594 104.394531 72.183594 103.59375 C 70.828125 101.382812 69.523438 99.378906 68.191406 97.445312 C 65.433594 93.457031 62.371094 89.566406 59.085938 85.929688 C 57.304688 83.945312 55.171875 81.738281 52.488281 80.761719 C 50.304688 79.957031 47.921875 80.234375 46.3125 81.460938 C 44.355469 82.894531 42.800781 84.023438 42.976562 86.503906 C 43.101562 88.085938 43.804688 89.59375 44.632812 91.246094 C 46.113281 94.058594 47.71875 96.84375 49.476562 99.503906 L 49.5 99.527344 C 49.574219 99.628906 49.828125 100.03125 50.203125 100.554688 C 50.753906 101.359375 51.609375 102.613281 52.761719 104.320312 C 53.539062 105.449219 54.269531 106.527344 54.792969 107.355469 C 55.421875 108.335938 55.898438 109.136719 55.296875 109.589844 C 54.871094 109.914062 54.445312 109.589844 54.269531 109.464844 C 54.09375 109.339844 53.890625 109.164062 53.515625 108.988281 L 53.164062 108.8125 C 52.535156 108.511719 51.933594 108.234375 51.332031 107.984375 C 49.851562 107.382812 48.320312 106.828125 46.792969 106.351562 C 43.832031 105.375 40.667969 104.519531 37.433594 103.867188 C 35.5 103.46875 33.542969 103.140625 31.613281 102.890625 C 29.453125 102.613281 26.96875 102.386719 24.863281 103.214844 C 22.554688 104.144531 20.796875 106.351562 20.421875 108.8125 C 20.070312 111.296875 21.125 113.878906 23.082031 115.433594 C 24.660156 116.664062 26.71875 117.214844 28.726562 117.742188 C 35.902344 119.726562 42.925781 122.183594 49.625 125.09375 C 49.828125 125.269531 49.925781 125.546875 49.851562 125.796875 C 49.75 126.097656 49.449219 126.273438 49.125 126.25 L 49.175781 126.273438 C 48.796875 126.222656 47.242188 126.925781 46.640625 127.175781 C 46.265625 127.351562 45.964844 127.476562 45.761719 127.554688 C 44.457031 128.03125 43.128906 128.53125 41.699219 129.132812 C 39.0625 130.214844 36.402344 131.441406 33.792969 132.773438 L 33.140625 133.097656 C 28.425781 135.507812 23.105469 138.242188 19.71875 142.15625 C 17.085938 145.242188 16.910156 149.355469 19.265625 152.191406 C 20.898438 154.125 23.53125 155.128906 25.992188 154.75 C 28.046875 154.449219 29.957031 153.269531 31.785156 152.117188 L 32.238281 151.839844 C 37.433594 148.605469 42.976562 145.894531 48.722656 143.785156 C 49.351562 143.5625 49.953125 143.234375 50.554688 142.933594 C 51.457031 142.558594 52.261719 142.15625 52.914062 142.15625 Z M 52.914062 142.15625 " fill-opacity="1" fill-rule="nonzero"/></g><g fill="#ffffff" fill-opacity="1"><g transform="translate(121.537489, 289.647886)"><g><path d="M 35.84375 0 L 9 0 L 9 -114.453125 L 35.84375 -114.453125 Z M 35.84375 0 "/></g></g></g><g fill="#ffffff" fill-opacity="1"><g transform="translate(162.787498, 289.647886)"><g><path d="M 33.453125 0 L 8.25 0 L 8.25 -85.046875 L 33.453125 -85.046875 L 33.453125 -75.90625 C 36.347656 -80.195312 39.570312 -83.09375 43.125 -84.59375 C 46.675781 -86.09375 50.703125 -86.84375 55.203125 -86.84375 L 58.953125 -86.84375 L 58.953125 -62.84375 L 54.15625 -62.84375 C 50.65625 -62.84375 47.753906 -62.441406 45.453125 -61.640625 C 43.148438 -60.847656 41.25 -59.75 39.75 -58.34375 C 37.550781 -56.25 35.953125 -53.425781 34.953125 -49.875 C 33.953125 -46.320312 33.453125 -41.644531 33.453125 -35.84375 Z M 33.453125 0 "/></g></g></g><g fill="#ffffff" fill-opacity="1"><g transform="translate(220.537505, 289.647886)"><g><path d="M 20.84375 -90.90625 C 16.945312 -90.90625 13.597656 -92.050781 10.796875 -94.34375 C 7.992188 -96.644531 6.59375 -99.796875 6.59375 -103.796875 C 6.59375 -107.796875 7.992188 -110.96875 10.796875 -113.3125 C 13.597656 -115.664062 16.945312 -116.84375 20.84375 -116.84375 C 24.75 -116.84375 28.097656 -115.664062 30.890625 -113.3125 C 33.691406 -110.96875 35.09375 -107.796875 35.09375 -103.796875 C 35.09375 -99.796875 33.691406 -96.644531 30.890625 -94.34375 C 28.097656 -92.050781 24.75 -90.90625 20.84375 -90.90625 Z M 33.453125 0 L 8.25 0 L 8.25 -85.046875 L 33.453125 -85.046875 Z M 33.453125 0 "/></g></g></g><g fill="#ffffff" fill-opacity="1"><g transform="translate(258.487507, 289.647886)"><g><path d="M 46.5 1.796875 C 42 1.796875 37.445312 1.269531 32.84375 0.21875 C 28.25 -0.820312 23.898438 -2.539062 19.796875 -4.9375 C 15.703125 -7.34375 12.28125 -10.546875 9.53125 -14.546875 C 6.78125 -18.546875 5.050781 -23.5 4.34375 -29.40625 L 28.796875 -29.40625 C 30.203125 -25.101562 32.550781 -22 35.84375 -20.09375 C 39.144531 -18.195312 42.597656 -17.25 46.203125 -17.25 C 49.597656 -17.25 52.445312 -17.921875 54.75 -19.265625 C 57.050781 -20.617188 58.203125 -22.5 58.203125 -24.90625 C 58.203125 -27.800781 56.472656 -29.820312 53.015625 -30.96875 C 49.566406 -32.125 45.445312 -33.203125 40.65625 -34.203125 C 37.050781 -34.898438 33.320312 -35.75 29.46875 -36.75 C 25.625 -37.75 22.050781 -39.171875 18.75 -41.015625 C 15.445312 -42.867188 12.796875 -45.394531 10.796875 -48.59375 C 8.796875 -51.800781 7.796875 -55.90625 7.796875 -60.90625 C 7.796875 -67.195312 9.421875 -72.242188 12.671875 -76.046875 C 15.921875 -79.847656 20.144531 -82.597656 25.34375 -84.296875 C 30.550781 -85.992188 36.101562 -86.84375 42 -86.84375 C 52.394531 -86.84375 61.09375 -84.269531 68.09375 -79.125 C 75.09375 -73.976562 79.394531 -66.550781 81 -56.84375 L 57.15625 -56.84375 C 55.945312 -60.945312 53.894531 -63.820312 51 -65.46875 C 48.101562 -67.125 45.050781 -67.953125 41.84375 -67.953125 C 38.75 -67.953125 36.273438 -67.375 34.421875 -66.21875 C 32.578125 -65.070312 31.65625 -63.5 31.65625 -61.5 C 31.65625 -58.695312 33.40625 -56.71875 36.90625 -55.5625 C 40.40625 -54.414062 44.601562 -53.394531 49.5 -52.5 C 53.195312 -51.800781 56.992188 -50.972656 60.890625 -50.015625 C 64.796875 -49.066406 68.421875 -47.691406 71.765625 -45.890625 C 75.117188 -44.097656 77.820312 -41.675781 79.875 -38.625 C 81.925781 -35.570312 82.953125 -31.546875 82.953125 -26.546875 C 82.953125 -18.046875 79.703125 -11.195312 73.203125 -6 C 66.703125 -0.800781 57.800781 1.796875 46.5 1.796875 Z M 46.5 1.796875 "/></g></g></g></svg>